# xmcd
#
# Track frame offsets:
#	150
#	19677
#	35766
#	50284
#	65167
#	82050
#	98427
#	116019
#	135383
#	149931
#	169040
#	187718
#	205402
#	218740
#
# Disc length: 3088 seconds
#
# Revision: 1
# Processed by: cddbd v1.5.2PL0 Copyright (c) Steve Scherf et al.
# Submitted via: audiograbber 1.83.01
#
DISCID=ca0c0e0e
DTITLE=Nuck Chorris Gang  - 100% Karate
DYEAR=2008
DGENRE=Blues-Rap
TTITLE0=Utek
TTITLE1=Supermarket
TTITLE2=Plavba
TTITLE3=Onych
TTITLE4=Kaj
TTITLE5=Jedna pulka nebe
TTITLE6=HD
TTITLE7=Hledam
TTITLE8=Hlas
TTITLE9=I get Ready
TTITLE10=Okna
TTITLE11=Telo
TTITLE12=Mouchy
TTITLE13=Makalea
EXTD=
EXTT0=
EXTT1=
EXTT2=
EXTT3=
EXTT4=
EXTT5=
EXTT6=
EXTT7=
EXTT8=
EXTT9=
EXTT10=
EXTT11=
EXTT12=
EXTT13=
PLAYORDER=
